<svg xmlns="http://www.w3.org/2000/svg" viewBox="0 0 975 641" width="975" height="641"><defs></defs><desc id="eitoran-data">eyJzdHJva2VzIjpbeyJwb2ludHMiOlt7IngiOjk2Ljg5OTc1MDA5Nzg3MTM5LCJ5IjotMTEuMzEyOTAzMDYzNDQwMjUzfSx7IngiOjk2Ljg5OTc1MDA5Nzg3MTM5LCJ5IjotNy40MzA3OTE1NTQyMjgxNzJ9LHsieCI6OTguNDg4NTk4NjU3NDg3NywieSI6LTYuNDYwMjYzNjc2OTI1MTczfSx7IngiOjk4LjQ4ODU5ODY1NzQ4NzcsInkiOi00LjE5NTY5ODYyOTg4NDc5Mn0seyJ4Ijo5OC40ODg1OTg2NTc0ODc3LCJ5IjotMi45MDE2NjE0NjAxNDc0NDF9LHsieCI6OTYuODk5NzUwMDk3ODcxMzksInkiOi0xLjI4NDExNDk5Nzk3NTc1MjV9LHsieCI6OTMuNzIyMDUyOTc4NjM5MjUsInkiOi0wLjYzNzA5NjQxMzEwNzA5MTN9LHsieCI6ODguOTU1NTA3Mjk5NzkwODcsInkiOi0wLjMxMzU4NzEyMDY3MjczOTR9LHsieCI6ODUuNzc3ODEwMTgwNTU4OSwieSI6MC42NTY5NDA3NTY2MzAyNzcyfSx7IngiOjY5Ljg4OTMyNDU4NDM5ODM0LCJ5IjoxLjMwMzk1OTM0MTQ5ODk0MTl9LHsieCI6NjAuMzU2MjMzMjI2NzAyNzQsInkiOjEuMzAzOTU5MzQxNDk4OTQxOX0seyJ4Ijo0Ni4wNTY1OTYxOTAxNTgxNDYsInkiOjAuOTgwNDUwMDQ5MDY0NjI1NX0seyJ4IjoyMi4yMjM4Njc3OTU5MTY2NDcsInkiOi0wLjYzNzA5NjQxMzEwNzA5MTN9LHsieCI6MTcuNDU3MzIyMTE3MDY4Nzg0LCJ5IjotMS4yODQxMTQ5OTc5NzU3NTI1fSx7IngiOi0xLjYwODg2MDU5ODMyNDgyNDMsInkiOi0yLjI1NDY0Mjg3NTI3ODc3OTd9LHsieCI6LTExLjE0MTk1MTk1NjAyMDQ3OCwieSI6LTIuNTc4MTUyMTY3NzEzMDg5fSx7IngiOi0xNC4zMTk2NDkwNzUyNTI1NzgsInkiOi0yLjkwMTY2MTQ2MDE0NzQ0MX0seyJ4IjotMTkuMDg2MTk0NzU0MTAxNDcsInkiOi0zLjIyNTE3MDc1MjU4MTc4Mn0seyJ4IjotMjIuMjYzODkxODczMzMzNTU2LCJ5IjotMy44NzIxODkzMzc0NTA0NzE3fSx7IngiOi0yNy4wMzA0Mzc1NTIxODE0ODIsInkiOi00LjE5NTY5ODYyOTg4NDc5Mn0seyJ4IjotMzEuNzk2OTgzMjMxMDI5MzYsInkiOi00Ljg0MjcxNzIxNDc1MzQ3NH0seyJ4IjotMzQuOTc0NjgwMzUwMjYxMzk0LCJ5IjotNS44MTMyNDUwOTIwNTY1MDV9LHsieCI6LTQxLjMzMDA3NDU4ODcyNjE1LCJ5IjotOC40MDEzMTk0MzE1MzEyfSx7IngiOi00Mi45MTg5MjMxNDgzNDI0MTUsInkiOi0xMC4zNDIzNzUxODYxMzcyNn0seyJ4IjotNDIuOTE4OTIzMTQ4MzQyNDE1LCJ5IjotMTIuNjA2OTQwMjMzMTc3NjI1fSx7IngiOi00Mi45MTg5MjMxNDgzNDI0MTUsInkiOi0xNC4yMjQ0ODY2OTUzNDkzMTN9LHsieCI6LTM5Ljc0MTIyNjAyOTExMDI0LCJ5IjotMTUuODQyMDMzMTU3NTIxMDA4fSx7IngiOi0zMS43OTY5ODMyMzEwMjkzNiwieSI6LTE2LjgxMjU2MTAzNDgyNDAwN30seyJ4IjotMjUuNDQxNTg4OTkyNTY1NTYzLCJ5IjotMTcuNzgzMDg4OTEyMTI3MDR9LHsieCI6LTE5LjA4NjE5NDc1NDEwMTQ3LCJ5IjotMTguMTA2NTk4MjA0NTYxMzY1fSx7IngiOi0xMi43MzA4MDA1MTU2MzY4MDEsInkiOi0xOC40MzAxMDc0OTY5OTU3M30seyJ4IjotNy45NjQyNTQ4MzY3ODg5NjcsInkiOi0xOC40MzAxMDc0OTY5OTU3M30seyJ4Ijo0Ljc0NjUzMzY0MDEzOTkzLCJ5IjotMTcuNzgzMDg4OTEyMTI3MDR9LHsieCI6OS41MTMwNzkzMTg5ODc3NjQsInkiOi0xNi44MTI1NjEwMzQ4MjQwMDd9LHsieCI6MjAuNjM1MDE5MjM2MzAwNzc4LCJ5IjotMTIuNjA2OTQwMjMzMTc3NjI1fSx7IngiOjI4LjU3OTI2MjAzNDM4MTMzLCJ5IjotNi4xMzY3NTQzODQ0OTA4MDd9LHsieCI6MzAuMTY4MTEwNTkzOTk2NTQ1LCJ5IjotNC41MTkyMDc5MjIzMTkxNH0seyJ4IjozMS43NTY5NTkxNTM2MTM5MzQsInkiOi0yLjkwMTY2MTQ2MDE0NzQ0MX0seyJ4IjozMS43NTY5NTkxNTM2MTM5MzQsInkiOi0xLjkzMTEzMzU4Mjg0NDQ0NTZ9LHsieCI6MzEuNzU2OTU5MTUzNjEzOTM0LCJ5IjotMC45NjA2MDU3MDU1NDE0Mjl9LHsieCI6MzEuNzU2OTU5MTUzNjEzOTM0LCJ5IjowLjY1Njk0MDc1NjYzMDI3NzJ9LHsieCI6MzEuNzU2OTU5MTUzNjEzOTM0LCJ5IjoxLjYyNzQ2ODYzMzkzMzMwOH0seyJ4IjozMC4xNjgxMTA1OTM5OTY1NDUsInkiOjIuOTIxNTA1ODAzNjcwNjQxfSx7IngiOjMwLjE2ODExMDU5Mzk5NjU0NSwieSI6NC41MzkwNTIyNjU4NDIzNDR9LHsieCI6MzAuMTY4MTEwNTkzOTk2NTQ1LCJ5Ijo1LjUwOTU4MDE0MzE0NTM1M30seyJ4IjozMC4xNjgxMTA1OTM5OTY1NDUsInkiOjYuNDgwMTA4MDIwNDQ4MzczfSx7IngiOjMwLjE2ODExMDU5Mzk5NjU0NSwieSI6OC4wOTc2NTQ0ODI2MjAwNjV9LHsieCI6MzAuMTY4MTEwNTkzOTk2NTQ1LCJ5Ijo5LjM5MTY5MTY1MjM1NzQzfSx7IngiOjI4LjU3OTI2MjAzNDM4MTMzLCJ5IjoxMC4wMzg3MTAyMzcyMjYxMzd9LHsieCI6MjYuOTkwNDEzNDc0NzY0NDM4LCJ5IjoxMS4wMDkyMzgxMTQ1MjkxNTJ9LHsieCI6MjUuNDAxNTY0OTE1MTQ4NjU0LCJ5IjoxMS42NTYyNTY2OTkzOTc3OTd9LHsieCI6MjMuODEyNzE2MzU1NTMyOSwieSI6MTIuMzAzMjc1Mjg0MjY2NDg1fSx7IngiOjIyLjIyMzg2Nzc5NTkxNjY0NywieSI6MTIuOTUwMjkzODY5MTM1MTM0fSx7IngiOjIzLjgxMjcxNjM1NTUzMjksInkiOjEzLjU5NzMxMjQ1NDAwMzgzOH0seyJ4IjoyMy44MTI3MTYzNTU1MzI5LCJ5IjoxNC41Njc4NDAzMzEzMDY4NjN9LHsieCI6MjUuNDAxNTY0OTE1MTQ4NjU0LCJ5IjoxNC44OTEzNDk2MjM3NDEyMDN9XSwic3R5bGUiOnsidGhpY2tuZXNzIjoxMywiY29udHJhY3Rpb24iOjAuMDUsInBlblN0eWxlIjoiZG91YmxlX3RhcGVyZWQiLCJzbW9vdGhpbmdMZXZlbCI6MTUsInRoaWNrbmVzc1BlYWsiOjAuNSwiYnJ1c2hTcmMiOm51bGwsImJydXNoQ29sb3JNb2RlIjoib3JpZ2luYWwiLCJmaWxsSW50ZXJpb3JUeXBlIjoic29saWQiLCJpbnRlcmlvckNvbG9yIjoiI2U3NGMzYyIsImludGVyaW9yR3JhZENvbG9ycyI6WyIjMDBmZjAwIiwiI2ZmZmYwMCJdLCJpbnRlcmlvckdyYWRBbmdsZSI6NDV9LCJlZmZlY3QzRCI6eyJ0eXBlIjoibm9uZSIsImFuZ2xlIjo0NSwiZGVwdGgiOjEwLCJkZXB0aENvbG9yTW9kZSI6ImN1c3RvbSIsImRlcHRoQ29sb3IiOiIjOGI2NTA4IiwiZGVwdGhEYXJrZW4iOjQwLCJzeW1tZXRyeSI6Im1pcnJvciJ9fV0sImdyYWRpZW50Q29sb3JzIjpbIiNmMWM0MGYiLCIjOGI2NTA4Il0sInBhdHRlcm5JbWFnZVNyYyI6bnVsbH0=</desc><g transform="translate(487.5, 320.5) rotate(0) scale(2.0736) translate(0, 0)"><g transform="" fill="#e74c3c"><path d="M 96.89975009787139 -11.312903063440253 L 95.52770435762483 -10.600520417725864 L 94.15565861737825 -9.888137772011474 L 92.6919612962582 -9.195024594759762 L 91.22826397513816 -8.501911417508051 L 89.58718729123525 -7.8463172570679784 L 87.94611060733234 -7.190723096627906 L 86.05352028791644 -6.58895268203378 L 84.16092996850054 -5.987182267439654 L 82.69324779278219 -5.630959872197893 L 81.22556561706382 -5.2747374769561315 L 79.75788344134547 -4.918515081714371 L 78.0599241751117 -4.614193311053626 L 76.36196490887795 -4.30987154039288 L 74.66400564264418 -4.005549769732135 L 72.72736085352413 -3.757782936250108 L 70.79071606440407 -3.510016102768081 L 68.85407127528401 -3.2622492692860536 L 67.22884221717143 -3.120637168780285 L 65.60361315905885 -2.9790250682745163 L 63.978384100946286 -2.8374129677687474 L 62.353155042833706 -2.695800867262979 L 60.57370966512534 -2.598654755532516 L 58.79426428741698 -2.501508643802053 L 57.01481890970861 -2.40436253207159 L 55.235373532000246 -2.3072164203411267 L 53.33120351581617 -2.253498842996186 L 51.4270334996321 -2.1997812656512457 L 49.522863483448035 -2.146063688306305 L 47.61869346726396 -2.0923461109613646 L 45.628071691435295 -2.080050992903152 L 43.63744991560664 -2.0677558748449396 L 41.64682813977797 -2.055460756786727 L 39.65620636394931 -2.0431656387285146 L 38.02992504066541 -2.0643652726621915 L 36.40364371738151 -2.0855649065958684 L 34.77736239409762 -2.1067645405295448 L 33.151081070813724 -2.1279641744632216 L 31.524799747529826 -2.1491638083968985 L 29.902354086892633 -2.1990589043527518 L 28.279908426255435 -2.248954000308605 L 26.65746276561824 -2.2988490962644583 L 25.035017104981044 -2.3487441922203116 L 23.41257144434385 -2.398639288176165 L 21.436059098317035 -2.493909051669001 L 19.459546752290215 -2.589178815161837 L 17.4830344062634 -2.6844485786546732 L 15.506522060236582 -2.7797183421475093 L 13.625381076901453 -2.9050226691800107 L 11.744240093566324 -3.0303269962125117 L 9.863099110231193 -3.1556313232450126 L 7.981958126896065 -3.280935650277514 L 6.23513217186181 -3.4335217837170164 L 4.488306216827555 -3.5861079171565184 L 2.7414802617933 -3.7386940505960204 L 0.9946543067590454 -3.891280184035523 L -0.5849487518858019 -4.068383393167023 L -2.164551810530649 -4.245486602298524 L -3.744154869175496 -4.422589811430024 L -5.323757927820344 -4.599693020561524 L -7.171621224909051 -4.86449594991704 L -9.019484521997759 -5.129298879272555 L -10.867347819086467 -5.39410180862807 L -12.429934650849555 -5.682791031587116 L -13.992521482612645 -5.971480254546162 L -15.555108314375733 -6.260169477505207 L -17.442000333201882 -6.720086477164593 L -19.328892352028028 -7.1800034768239795 L -20.740025293835796 -7.655552251993809 L -22.151158235643564 -8.131101027163638 L -23.0772794474435 -8.608444679587786 L -24.003400659243443 -9.085788332011933 L -24.885737735222197 -10.011349962405008 L -24.81765025394916 -10.870949524455295 L -23.839449103267814 -11.625329907528737 L -22.01377256656712 -12.23516733231182 L -20.72005191060981 -12.449509908126402 L -19.426331254652506 -12.663852483940984 L -17.805775138497182 -12.77212410973165 L -16.185219022341858 -12.880395735522317 L -14.301784519318488 -12.871253414862384 L -12.41835001629512 -12.862111094202449 L -11.035200927688411 -12.773651660472945 L -9.6520518390817 -12.685192226743439 L -8.268902750474991 -12.596732793013935 L -6.808931229357956 -12.425710224602813 L -5.348959708240921 -12.254687656191692 L -3.8889881871238865 -12.08366508778057 L -2.403344225278553 -11.833830364912274 L -0.9177002634332188 -11.583995642043975 L 0.5679436984121153 -11.334160919175678 L 2.030371072152368 -11.012894519714983 L 3.4927984458926202 -10.691628120254286 L 4.955225819632872 -10.370361720793591 L 6.350410214853011 -9.988004918861153 L 7.74559461007315 -9.605648116928716 L 9.14077900529329 -9.223291314996278 L 10.431774025275814 -8.792212304778285 L 11.72276904525834 -8.361133294560293 L 13.013764065240865 -7.930054284342301 L 14.75157075296482 -7.230332871249578 L 16.489377440688777 -6.530611458156856 L 18.00035269833894 -5.797587693168643 L 19.511327955989103 -5.064563928180431 L 20.78158749641671 -4.316460324078396 L 22.051847036844315 -3.5683567199763613 L 23.08063421797185 -2.820786883806366 L 24.109421399099382 -2.073217047636371 L 24.90707778557019 -1.3386046287518216 L 25.704734172041 -0.6039922098672723 L 26.87550048245342 0.8211159099815342 L 27.670948847813364 2.1900706712670726 L 28.146623181222807 3.4960229752672034 L 28.359988554130613 4.73611603713291 L 28.3670710597571 5.9103226011872785 L 28.220114529003286 7.020490871925039 L 27.96605474438196 8.069683723404484 L 27.645532857891638 9.061810831227042 L 27.29219945892828 10.001492708974066 L 26.932172602080865 10.894066349040344 L 26.583658028831113 11.745641713701186 L 26.256862219155067 12.563137754579003 L 25.954384172017043 13.35425490050233 L 25.672239919211112 14.127368580578842 L 25.401564915148654 14.891349623741203 Z" fill-rule="nonzero" stroke="none" /></g><g transform="rotate(90)" fill="#e74c3c"><path d="M 96.89975009787139 -11.312903063440253 L 95.52770435762483 -10.600520417725864 L 94.15565861737825 -9.888137772011474 L 92.6919612962582 -9.195024594759762 L 91.22826397513816 -8.501911417508051 L 89.58718729123525 -7.8463172570679784 L 87.94611060733234 -7.190723096627906 L 86.05352028791644 -6.58895268203378 L 84.16092996850054 -5.987182267439654 L 82.69324779278219 -5.630959872197893 L 81.22556561706382 -5.2747374769561315 L 79.75788344134547 -4.918515081714371 L 78.0599241751117 -4.614193311053626 L 76.36196490887795 -4.30987154039288 L 74.66400564264418 -4.005549769732135 L 72.72736085352413 -3.757782936250108 L 70.79071606440407 -3.510016102768081 L 68.85407127528401 -3.2622492692860536 L 67.22884221717143 -3.120637168780285 L 65.60361315905885 -2.9790250682745163 L 63.978384100946286 -2.8374129677687474 L 62.353155042833706 -2.695800867262979 L 60.57370966512534 -2.598654755532516 L 58.79426428741698 -2.501508643802053 L 57.01481890970861 -2.40436253207159 L 55.235373532000246 -2.3072164203411267 L 53.33120351581617 -2.253498842996186 L 51.4270334996321 -2.1997812656512457 L 49.522863483448035 -2.146063688306305 L 47.61869346726396 -2.0923461109613646 L 45.628071691435295 -2.080050992903152 L 43.63744991560664 -2.0677558748449396 L 41.64682813977797 -2.055460756786727 L 39.65620636394931 -2.0431656387285146 L 38.02992504066541 -2.0643652726621915 L 36.40364371738151 -2.0855649065958684 L 34.77736239409762 -2.1067645405295448 L 33.151081070813724 -2.1279641744632216 L 31.524799747529826 -2.1491638083968985 L 29.902354086892633 -2.1990589043527518 L 28.279908426255435 -2.248954000308605 L 26.65746276561824 -2.2988490962644583 L 25.035017104981044 -2.3487441922203116 L 23.41257144434385 -2.398639288176165 L 21.436059098317035 -2.493909051669001 L 19.459546752290215 -2.589178815161837 L 17.4830344062634 -2.6844485786546732 L 15.506522060236582 -2.7797183421475093 L 13.625381076901453 -2.9050226691800107 L 11.744240093566324 -3.0303269962125117 L 9.863099110231193 -3.1556313232450126 L 7.981958126896065 -3.280935650277514 L 6.23513217186181 -3.4335217837170164 L 4.488306216827555 -3.5861079171565184 L 2.7414802617933 -3.7386940505960204 L 0.9946543067590454 -3.891280184035523 L -0.5849487518858019 -4.068383393167023 L -2.164551810530649 -4.245486602298524 L -3.744154869175496 -4.422589811430024 L -5.323757927820344 -4.599693020561524 L -7.171621224909051 -4.86449594991704 L -9.019484521997759 -5.129298879272555 L -10.867347819086467 -5.39410180862807 L -12.429934650849555 -5.682791031587116 L -13.992521482612645 -5.971480254546162 L -15.555108314375733 -6.260169477505207 L -17.442000333201882 -6.720086477164593 L -19.328892352028028 -7.1800034768239795 L -20.740025293835796 -7.655552251993809 L -22.151158235643564 -8.131101027163638 L -23.0772794474435 -8.608444679587786 L -24.003400659243443 -9.085788332011933 L -24.885737735222197 -10.011349962405008 L -24.81765025394916 -10.870949524455295 L -23.839449103267814 -11.625329907528737 L -22.01377256656712 -12.23516733231182 L -20.72005191060981 -12.449509908126402 L -19.426331254652506 -12.663852483940984 L -17.805775138497182 -12.77212410973165 L -16.185219022341858 -12.880395735522317 L -14.301784519318488 -12.871253414862384 L -12.41835001629512 -12.862111094202449 L -11.035200927688411 -12.773651660472945 L -9.6520518390817 -12.685192226743439 L -8.268902750474991 -12.596732793013935 L -6.808931229357956 -12.425710224602813 L -5.348959708240921 -12.254687656191692 L -3.8889881871238865 -12.08366508778057 L -2.403344225278553 -11.833830364912274 L -0.9177002634332188 -11.583995642043975 L 0.5679436984121153 -11.334160919175678 L 2.030371072152368 -11.012894519714983 L 3.4927984458926202 -10.691628120254286 L 4.955225819632872 -10.370361720793591 L 6.350410214853011 -9.988004918861153 L 7.74559461007315 -9.605648116928716 L 9.14077900529329 -9.223291314996278 L 10.431774025275814 -8.792212304778285 L 11.72276904525834 -8.361133294560293 L 13.013764065240865 -7.930054284342301 L 14.75157075296482 -7.230332871249578 L 16.489377440688777 -6.530611458156856 L 18.00035269833894 -5.797587693168643 L 19.511327955989103 -5.064563928180431 L 20.78158749641671 -4.316460324078396 L 22.051847036844315 -3.5683567199763613 L 23.08063421797185 -2.820786883806366 L 24.109421399099382 -2.073217047636371 L 24.90707778557019 -1.3386046287518216 L 25.704734172041 -0.6039922098672723 L 26.87550048245342 0.8211159099815342 L 27.670948847813364 2.1900706712670726 L 28.146623181222807 3.4960229752672034 L 28.359988554130613 4.73611603713291 L 28.3670710597571 5.9103226011872785 L 28.220114529003286 7.020490871925039 L 27.96605474438196 8.069683723404484 L 27.645532857891638 9.061810831227042 L 27.29219945892828 10.001492708974066 L 26.932172602080865 10.894066349040344 L 26.583658028831113 11.745641713701186 L 26.256862219155067 12.563137754579003 L 25.954384172017043 13.35425490050233 L 25.672239919211112 14.127368580578842 L 25.401564915148654 14.891349623741203 Z" fill-rule="nonzero" stroke="none" /></g><g transform="rotate(180)" fill="#e74c3c"><path d="M 96.89975009787139 -11.312903063440253 L 95.52770435762483 -10.600520417725864 L 94.15565861737825 -9.888137772011474 L 92.6919612962582 -9.195024594759762 L 91.22826397513816 -8.501911417508051 L 89.58718729123525 -7.8463172570679784 L 87.94611060733234 -7.190723096627906 L 86.05352028791644 -6.58895268203378 L 84.16092996850054 -5.987182267439654 L 82.69324779278219 -5.630959872197893 L 81.22556561706382 -5.2747374769561315 L 79.75788344134547 -4.918515081714371 L 78.0599241751117 -4.614193311053626 L 76.36196490887795 -4.30987154039288 L 74.66400564264418 -4.005549769732135 L 72.72736085352413 -3.757782936250108 L 70.79071606440407 -3.510016102768081 L 68.85407127528401 -3.2622492692860536 L 67.22884221717143 -3.120637168780285 L 65.60361315905885 -2.9790250682745163 L 63.978384100946286 -2.8374129677687474 L 62.353155042833706 -2.695800867262979 L 60.57370966512534 -2.598654755532516 L 58.79426428741698 -2.501508643802053 L 57.01481890970861 -2.40436253207159 L 55.235373532000246 -2.3072164203411267 L 53.33120351581617 -2.253498842996186 L 51.4270334996321 -2.1997812656512457 L 49.522863483448035 -2.146063688306305 L 47.61869346726396 -2.0923461109613646 L 45.628071691435295 -2.080050992903152 L 43.63744991560664 -2.0677558748449396 L 41.64682813977797 -2.055460756786727 L 39.65620636394931 -2.0431656387285146 L 38.02992504066541 -2.0643652726621915 L 36.40364371738151 -2.0855649065958684 L 34.77736239409762 -2.1067645405295448 L 33.151081070813724 -2.1279641744632216 L 31.524799747529826 -2.1491638083968985 L 29.902354086892633 -2.1990589043527518 L 28.279908426255435 -2.248954000308605 L 26.65746276561824 -2.2988490962644583 L 25.035017104981044 -2.3487441922203116 L 23.41257144434385 -2.398639288176165 L 21.436059098317035 -2.493909051669001 L 19.459546752290215 -2.589178815161837 L 17.4830344062634 -2.6844485786546732 L 15.506522060236582 -2.7797183421475093 L 13.625381076901453 -2.9050226691800107 L 11.744240093566324 -3.0303269962125117 L 9.863099110231193 -3.1556313232450126 L 7.981958126896065 -3.280935650277514 L 6.23513217186181 -3.4335217837170164 L 4.488306216827555 -3.5861079171565184 L 2.7414802617933 -3.7386940505960204 L 0.9946543067590454 -3.891280184035523 L -0.5849487518858019 -4.068383393167023 L -2.164551810530649 -4.245486602298524 L -3.744154869175496 -4.422589811430024 L -5.323757927820344 -4.599693020561524 L -7.171621224909051 -4.86449594991704 L -9.019484521997759 -5.129298879272555 L -10.867347819086467 -5.39410180862807 L -12.429934650849555 -5.682791031587116 L -13.992521482612645 -5.971480254546162 L -15.555108314375733 -6.260169477505207 L -17.442000333201882 -6.720086477164593 L -19.328892352028028 -7.1800034768239795 L -20.740025293835796 -7.655552251993809 L -22.151158235643564 -8.131101027163638 L -23.0772794474435 -8.608444679587786 L -24.003400659243443 -9.085788332011933 L -24.885737735222197 -10.011349962405008 L -24.81765025394916 -10.870949524455295 L -23.839449103267814 -11.625329907528737 L -22.01377256656712 -12.23516733231182 L -20.72005191060981 -12.449509908126402 L -19.426331254652506 -12.663852483940984 L -17.805775138497182 -12.77212410973165 L -16.185219022341858 -12.880395735522317 L -14.301784519318488 -12.871253414862384 L -12.41835001629512 -12.862111094202449 L -11.035200927688411 -12.773651660472945 L -9.6520518390817 -12.685192226743439 L -8.268902750474991 -12.596732793013935 L -6.808931229357956 -12.425710224602813 L -5.348959708240921 -12.254687656191692 L -3.8889881871238865 -12.08366508778057 L -2.403344225278553 -11.833830364912274 L -0.9177002634332188 -11.583995642043975 L 0.5679436984121153 -11.334160919175678 L 2.030371072152368 -11.012894519714983 L 3.4927984458926202 -10.691628120254286 L 4.955225819632872 -10.370361720793591 L 6.350410214853011 -9.988004918861153 L 7.74559461007315 -9.605648116928716 L 9.14077900529329 -9.223291314996278 L 10.431774025275814 -8.792212304778285 L 11.72276904525834 -8.361133294560293 L 13.013764065240865 -7.930054284342301 L 14.75157075296482 -7.230332871249578 L 16.489377440688777 -6.530611458156856 L 18.00035269833894 -5.797587693168643 L 19.511327955989103 -5.064563928180431 L 20.78158749641671 -4.316460324078396 L 22.051847036844315 -3.5683567199763613 L 23.08063421797185 -2.820786883806366 L 24.109421399099382 -2.073217047636371 L 24.90707778557019 -1.3386046287518216 L 25.704734172041 -0.6039922098672723 L 26.87550048245342 0.8211159099815342 L 27.670948847813364 2.1900706712670726 L 28.146623181222807 3.4960229752672034 L 28.359988554130613 4.73611603713291 L 28.3670710597571 5.9103226011872785 L 28.220114529003286 7.020490871925039 L 27.96605474438196 8.069683723404484 L 27.645532857891638 9.061810831227042 L 27.29219945892828 10.001492708974066 L 26.932172602080865 10.894066349040344 L 26.583658028831113 11.745641713701186 L 26.256862219155067 12.563137754579003 L 25.954384172017043 13.35425490050233 L 25.672239919211112 14.127368580578842 L 25.401564915148654 14.891349623741203 Z" fill-rule="nonzero" stroke="none" /></g><g transform="rotate(270)" fill="#e74c3c"><path d="M 96.89975009787139 -11.312903063440253 L 95.52770435762483 -10.600520417725864 L 94.15565861737825 -9.888137772011474 L 92.6919612962582 -9.195024594759762 L 91.22826397513816 -8.501911417508051 L 89.58718729123525 -7.8463172570679784 L 87.94611060733234 -7.190723096627906 L 86.05352028791644 -6.58895268203378 L 84.16092996850054 -5.987182267439654 L 82.69324779278219 -5.630959872197893 L 81.22556561706382 -5.2747374769561315 L 79.75788344134547 -4.918515081714371 L 78.0599241751117 -4.614193311053626 L 76.36196490887795 -4.30987154039288 L 74.66400564264418 -4.005549769732135 L 72.72736085352413 -3.757782936250108 L 70.79071606440407 -3.510016102768081 L 68.85407127528401 -3.2622492692860536 L 67.22884221717143 -3.120637168780285 L 65.60361315905885 -2.9790250682745163 L 63.978384100946286 -2.8374129677687474 L 62.353155042833706 -2.695800867262979 L 60.57370966512534 -2.598654755532516 L 58.79426428741698 -2.501508643802053 L 57.01481890970861 -2.40436253207159 L 55.235373532000246 -2.3072164203411267 L 53.33120351581617 -2.253498842996186 L 51.4270334996321 -2.1997812656512457 L 49.522863483448035 -2.146063688306305 L 47.61869346726396 -2.0923461109613646 L 45.628071691435295 -2.080050992903152 L 43.63744991560664 -2.0677558748449396 L 41.64682813977797 -2.055460756786727 L 39.65620636394931 -2.0431656387285146 L 38.02992504066541 -2.0643652726621915 L 36.40364371738151 -2.0855649065958684 L 34.77736239409762 -2.1067645405295448 L 33.151081070813724 -2.1279641744632216 L 31.524799747529826 -2.1491638083968985 L 29.902354086892633 -2.1990589043527518 L 28.279908426255435 -2.248954000308605 L 26.65746276561824 -2.2988490962644583 L 25.035017104981044 -2.3487441922203116 L 23.41257144434385 -2.398639288176165 L 21.436059098317035 -2.493909051669001 L 19.459546752290215 -2.589178815161837 L 17.4830344062634 -2.6844485786546732 L 15.506522060236582 -2.7797183421475093 L 13.625381076901453 -2.9050226691800107 L 11.744240093566324 -3.0303269962125117 L 9.863099110231193 -3.1556313232450126 L 7.981958126896065 -3.280935650277514 L 6.23513217186181 -3.4335217837170164 L 4.488306216827555 -3.5861079171565184 L 2.7414802617933 -3.7386940505960204 L 0.9946543067590454 -3.891280184035523 L -0.5849487518858019 -4.068383393167023 L -2.164551810530649 -4.245486602298524 L -3.744154869175496 -4.422589811430024 L -5.323757927820344 -4.599693020561524 L -7.171621224909051 -4.86449594991704 L -9.019484521997759 -5.129298879272555 L -10.867347819086467 -5.39410180862807 L -12.429934650849555 -5.682791031587116 L -13.992521482612645 -5.971480254546162 L -15.555108314375733 -6.260169477505207 L -17.442000333201882 -6.720086477164593 L -19.328892352028028 -7.1800034768239795 L -20.740025293835796 -7.655552251993809 L -22.151158235643564 -8.131101027163638 L -23.0772794474435 -8.608444679587786 L -24.003400659243443 -9.085788332011933 L -24.885737735222197 -10.011349962405008 L -24.81765025394916 -10.870949524455295 L -23.839449103267814 -11.625329907528737 L -22.01377256656712 -12.23516733231182 L -20.72005191060981 -12.449509908126402 L -19.426331254652506 -12.663852483940984 L -17.805775138497182 -12.77212410973165 L -16.185219022341858 -12.880395735522317 L -14.301784519318488 -12.871253414862384 L -12.41835001629512 -12.862111094202449 L -11.035200927688411 -12.773651660472945 L -9.6520518390817 -12.685192226743439 L -8.268902750474991 -12.596732793013935 L -6.808931229357956 -12.425710224602813 L -5.348959708240921 -12.254687656191692 L -3.8889881871238865 -12.08366508778057 L -2.403344225278553 -11.833830364912274 L -0.9177002634332188 -11.583995642043975 L 0.5679436984121153 -11.334160919175678 L 2.030371072152368 -11.012894519714983 L 3.4927984458926202 -10.691628120254286 L 4.955225819632872 -10.370361720793591 L 6.350410214853011 -9.988004918861153 L 7.74559461007315 -9.605648116928716 L 9.14077900529329 -9.223291314996278 L 10.431774025275814 -8.792212304778285 L 11.72276904525834 -8.361133294560293 L 13.013764065240865 -7.930054284342301 L 14.75157075296482 -7.230332871249578 L 16.489377440688777 -6.530611458156856 L 18.00035269833894 -5.797587693168643 L 19.511327955989103 -5.064563928180431 L 20.78158749641671 -4.316460324078396 L 22.051847036844315 -3.5683567199763613 L 23.08063421797185 -2.820786883806366 L 24.109421399099382 -2.073217047636371 L 24.90707778557019 -1.3386046287518216 L 25.704734172041 -0.6039922098672723 L 26.87550048245342 0.8211159099815342 L 27.670948847813364 2.1900706712670726 L 28.146623181222807 3.4960229752672034 L 28.359988554130613 4.73611603713291 L 28.3670710597571 5.9103226011872785 L 28.220114529003286 7.020490871925039 L 27.96605474438196 8.069683723404484 L 27.645532857891638 9.061810831227042 L 27.29219945892828 10.001492708974066 L 26.932172602080865 10.894066349040344 L 26.583658028831113 11.745641713701186 L 26.256862219155067 12.563137754579003 L 25.954384172017043 13.35425490050233 L 25.672239919211112 14.127368580578842 L 25.401564915148654 14.891349623741203 Z" fill-rule="nonzero" stroke="none" /></g><g transform="" fill="#d4af37"><path d="M 97.04951080210122 -11.024464627255709 L 96.92773033649868 -10.989109755531706 L 96.80169013320665 -11.003049479743131 L 96.69057867061902 -11.064161603242715 L 96.61131166168684 -11.16314235921042 L 96.57595678996285 -11.284922824812954 L 96.58989651417427 -11.410963028105 L 96.65100863767385 -11.52207449069263 L 96.74998939364156 -11.601341499624796 L 95.30264701317452 -11.03184446116367 L 93.83817279163047 -10.469650696900839 L 92.33711498449588 -9.920984580982667 L 90.78097611347897 -9.39071874490772 L 89.14862847078282 -8.883134418397315 L 87.42798429842388 -8.402531664493234 L 85.64463001724657 -7.963186336390574 L 83.90843956028613 -7.596068171507294 L 82.30642276623554 -7.319997018595695 L 80.787793413202 -7.10493435882352 L 79.25194974893886 -6.919708824577044 L 77.63776625383498 -6.754435596599261 L 75.95059762349388 -6.603512496132898 L 74.19646285607047 -6.468969054929967 L 72.35888665799837 -6.354425773946055 L 70.48351707910997 -6.258553583187006 L 68.6709926346618 -6.190670375970704 L 66.96848958478922 -6.159471377929383 L 65.32824615997451 -6.150970526064815 L 63.699356872432 -6.1510867777922265 L 62.0486663245223 -6.1615464262739135 L 60.34350686311887 -6.185940859037123 L 58.589207829960856 -6.218348295482457 L 56.81512530050749 -6.254633036486936 L 55.02193093685387 -6.299825849892242 L 53.1846856914922 -6.358242055529415 L 51.306148948735476 -6.424454986179056 L 49.412450998266195 -6.494054242793147 L 47.508141890947016 -6.571470925020423 L 45.573350877825476 -6.661077278495696 L 43.61030146304051 -6.757918643777112 L 41.66675436890431 -6.857176835160894 L 39.820790779241065 -6.961829641603968 L 38.107458717445596 -7.075536313705482 L 36.46905882910646 -7.194302516710908 L 34.849048495789525 -7.312637996089771 L 33.23972795149106 -7.429977016200155 L 31.644990725995022 -7.550693775092799 L 30.052142500536235 -7.678426596768204 L 28.447200667052925 -7.810006304968453 L 26.832558046884 -7.940773812453512 L 25.201236297707855 -8.071248644262106 L 23.499034152469125 -8.20857485983599 L 21.668918634948938 -8.358681387495077 L 19.743890200189128 -8.516714220085639 L 17.801778569097426 -8.67633243045482 L 15.892493909699727 -8.839082259645958 L 14.018165919579118 -9.008850551476566 L 12.156414329271104 -9.182895914243705 L 10.312767622118562 -9.35699563283135 L 8.516648777140391 -9.532892537262757 L 6.769602833572932 -9.714638915477178 L 5.043018232364951 -9.900179556038543 L 3.3404802408388385 -10.085079870238632 L 1.696880796639181 -10.270302034266711 L 0.11456507541925914 -10.460180479818069 L -1.4447842323665079 -10.654015618744165 L -3.006574890965994 -10.850964990813825 L -4.608641662986798 -11.06208161477083 L -6.299200169533696 -11.299798127002564 L -8.033882833903206 -11.555381161861913 L -9.702685729757775 -11.815414434594452 L -11.264483920855659 -12.079552879188412 L -12.774188007875765 -12.35442682415008 L -14.30152394717673 -12.658009119627318 L -15.863320621655786 -13.005431430961758 L -17.333637374914556 -13.371583563812969 L -18.55114615639693 -13.71379657479028 L -19.420657991804212 -13.97059146539668 L -19.842264751533246 -13.961723399258378 L -19.824089976226656 -13.238582827939137 L -19.71109235055416 -11.345038434734306 L -19.946805287042583 -8.79816443695475 L -20.313174659098195 -7.006386793115563 L -20.21104503439963 -6.417045294264534 L -19.56529967022571 -6.447314635422987 L -18.57216358765252 -6.615352635353144 L -17.328459932125874 -6.776866456475517 L -15.889160641854296 -6.904774540228926 L -14.329261999423396 -6.990535811416607 L -12.791930619553684 -7.037684292379322 L -11.380414991359771 -7.0535653049450655 L -10.051741157323315 -7.048532691873541 L -8.738061836471072 -7.023599978056832 L -7.393301143605049 -6.971904334800485 L -6.013276895036214 -6.898249780622405 L -4.624979498314822 -6.805180178462816 L -3.222907052541046 -6.686335411476138 L -1.8036948269898825 -6.546185170363842 L -0.3919847779836172 -6.388579649198571 L 1.0144879546928431 -6.207643895401387 L 2.422028273993651 -6.007286433571833 L 3.807830341145246 -5.792516623112439 L 5.17151037335401 -5.558031394334217 L 6.522403390394782 -5.306911646345607 L 7.839296284529629 -5.045281593470138 L 9.123407076080458 -4.7669422734795255 L 10.422041341717641 -4.459751809082065 L 11.80857216354608 -4.092713520327287 L 13.328085075071666 -3.635352622269353 L 14.894960379889422 -3.1130029488979423 L 16.394286032043237 -2.565542853149565 L 17.784510343519823 -2.0113608415711215 L 19.057176158866085 -1.4565460080818187 L 20.2141772676188 -0.9055930177840473 L 21.254552741378028 -0.36300896045641123 L 22.18548996092414 0.170192629663727 L 23.035490226658702 0.724339262421479 L 23.87628471729071 1.3931605077148013 L 24.714097020813547 2.233192475154919 L 25.428158382607158 3.1502527115508787 L 25.937687551717286 4.050307233763039 L 26.257015361759986 4.9289745427065235 L 26.42413367827456 5.814137921476277 L 26.467697576331645 6.722054757881807 L 26.411948625262173 7.652361212148336 L 26.282578808805066 8.5947085998736 L 26.10676291175739 9.536051433184655 L 25.91018425324375 10.465068304853139 L 25.713809109223167 11.373793738056431 L 25.531660560661376 12.257992782116212 L 25.369863143255767 13.117395452960267 L 25.226933624871904 13.956109198739922 L 25.0952234837262 14.782814249811578 L 25.16007702612566 14.673844222761785 L 25.2616949105357 14.597987421319738 L 25.384606735223315 14.566792355861372 L 25.510100289078277 14.58500819231875 L 25.619070316128074 14.649861734718206 L 25.69492711757012 14.751479619128247 L 25.726122183028487 14.874391443815863 L 25.707906346571107 14.999884997670828 L 26.130689444548153 14.28773118057813 L 26.562143591156026 13.569628221123985 L 27.009676126588662 12.836788883186964 L 27.477753793018255 12.076780791899207 L 27.966063528136097 11.274059603678609 L 28.46770958677099 10.410589284772298 L 28.967307878759357 9.466151555008805 L 29.438731069592478 8.418700209057896 L 29.842501516111092 7.245963425699962 L 30.12389629323319 5.929957536375008 L 30.214527642775373 4.464648537081164 L 30.04045897299127 2.8633900526625733 L 29.543250600477 1.1669981553660267 L 28.735834674552876 -0.5273967327661508 L 27.762770889172693 -2.0487987845627815 L 26.79764858411498 -3.2832002357346637 L 25.846856309869004 -4.316160586512877 L 24.823537539469275 -5.280939255754598 L 23.684925816690903 -6.231522018051966 L 22.42113373249935 -7.173814531546981 L 21.034228682574795 -8.104937568729447 L 19.524131066710485 -9.021117267570084 L 17.901997589756217 -9.916505692397232 L 16.213772952687478 -10.772170843390246 L 14.579924984931475 -11.54765000998121 L 13.100468572317729 -12.214454161799999 L 11.728952631113216 -12.804608948972794 L 10.357243195863058 -13.361543714561405 L 8.949372612053377 -13.894832032414019 L 7.515808262128669 -14.406446977220494 L 6.047751027648085 -14.8983570500578 L 4.551362388162367 -15.364074989276235 L 3.041092182449076 -15.80459572250877 L 1.508927438914101 -16.22145394105339 L -0.03538106033139693 -16.607973144172533 L -1.57963451385756 -16.966311472338468 L -3.1320481642986593 -17.29783927906127 L -4.678895012957282 -17.59593358242161 L -6.210629807937392 -17.863724008229863 L -7.737056559550483 -18.102494090070838 L -9.246846339348936 -18.30605157610026 L -10.776807938034217 -18.478457193945673 L -12.448796257010663 -18.619936508617595 L -14.316090676062137 -18.71734635183261 L -16.26954383841259 -18.757240941502523 L -18.17930070778486 -18.728048421208268 L -20.01810642603292 -18.6175918965826 L -21.897345738833597 -18.361116912874504 L -24.08162924340811 -17.70174537087769 L -26.592421068724587 -16.037144905965114 L -28.63722282452159 -12.821670447287307 L -29.10339106127607 -8.681891543597958 L -27.95738675896317 -5.285475593251485 L -26.20401927805183 -3.3333128293430017 L -24.477576216391096 -2.3004968048257903 L -22.75980876923805 -1.6003750200839362 L -20.933356617607387 -1.0039472811147858 L -18.99402416011584 -0.46762880455652606 L -17.065713568985903 -0.0023018095787415427 L -15.263368246827413 0.3809480456608392 L -13.550365605939154 0.7070271839127529 L -11.799224312709454 1.00771960175783 L -9.959169716010106 1.2911762201189982 L -8.086691658805316 1.5549888957114002 L -6.257774547224079 1.7911326019449867 L -4.528948649351118 1.9903502171943501 L -2.885935986167662 2.161246945412462 L -1.2550313494263272 2.3190986881622315 L 0.42888170033266615 2.467735732430995 L 2.1719115125122976 2.603376763724799 L 3.9384188080852036 2.727134939611922 L 5.724300955131641 2.8427937501155127 L 7.556868539745251 2.9487592826796147 L 9.43707004332478 3.040931388413691 L 11.335740840117424 3.1213248598995365 L 13.249381594057523 3.193519129933563 L 15.198373242729854 3.2551373715025718 L 17.18107560326311 3.3021491899624937 L 19.17106417922814 3.3371500420647395 L 21.140883825056555 3.362877342670566 L 23.037190320940645 3.37427055477348 L 24.806482175625664 3.3657743183349718 L 26.47670241738625 3.342349625244002 L 28.112677556060298 3.311639176958887 L 29.753240749874855 3.275258386746797 L 31.407738669784344 3.2289506612889065 L 33.0631092667622 3.1689982659578098 L 34.705737663008065 3.098649787638327 L 36.34405805289729 3.022636787487302 L 38.0165152835331 2.940910692030526 L 39.78892375793407 2.848166646521556 L 41.691025830299516 2.7403602452368676 L 43.669044587259165 2.6212082187067742 L 45.66757699534766 2.4936849398549272 L 47.658700407710924 2.352977976319724 L 49.618060458932426 2.194636513346072 L 51.544539228158804 2.0235348389778083 L 53.45576980376844 1.8436009474851904 L 55.34704082215045 1.6499553251514019 L 57.19256098253801 1.4382645502919056 L 58.99485768954396 1.2139246955077776 L 60.776770394882945 0.9808053339476372 L 62.53180324435493 0.7336604449073051 L 64.2302692572117 0.46843482823027727 L 65.88149534872579 0.19051045796775673 L 67.54400401821096 -0.10048619263500821 L 69.29126515240833 -0.42045042471003036 L 71.1489052499893 -0.7810667343478367 L 73.058809048718 -1.172792243225236 L 74.93678104254268 -1.5882793132721378 L 76.72763910878578 -2.027014663589613 L 78.43773436009157 -2.483990414429109 L 80.07591102789151 -2.959672248509807 L 81.6296075832941 -3.4576038733246404 L 83.15117221917134 -3.9859695871994023 L 84.75612120380394 -4.579524727097078 L 86.49292799202681 -5.267408458351888 L 88.26296225015683 -6.027363777951494 L 89.95026094398762 -6.825576421966377 L 91.52531963330436 -7.644889099255618 L 92.99945816193701 -8.479059381945136 L 94.39551868332876 -9.32294903765664 L 95.7366310238414 -10.172587800737485 Z" fill-rule="nonzero" stroke="none" /></g><g transform="rotate(90)" fill="#d4af37"><path d="M 97.04951080210122 -11.024464627255709 L 96.92773033649868 -10.989109755531706 L 96.80169013320665 -11.003049479743131 L 96.69057867061902 -11.064161603242715 L 96.61131166168684 -11.16314235921042 L 96.57595678996285 -11.284922824812954 L 96.58989651417427 -11.410963028105 L 96.65100863767385 -11.52207449069263 L 96.74998939364156 -11.601341499624796 L 95.30264701317452 -11.03184446116367 L 93.83817279163047 -10.469650696900839 L 92.33711498449588 -9.920984580982667 L 90.78097611347897 -9.39071874490772 L 89.14862847078282 -8.883134418397315 L 87.42798429842388 -8.402531664493234 L 85.64463001724657 -7.963186336390574 L 83.90843956028613 -7.596068171507294 L 82.30642276623554 -7.319997018595695 L 80.787793413202 -7.10493435882352 L 79.25194974893886 -6.919708824577044 L 77.63776625383498 -6.754435596599261 L 75.95059762349388 -6.603512496132898 L 74.19646285607047 -6.468969054929967 L 72.35888665799837 -6.354425773946055 L 70.48351707910997 -6.258553583187006 L 68.6709926346618 -6.190670375970704 L 66.96848958478922 -6.159471377929383 L 65.32824615997451 -6.150970526064815 L 63.699356872432 -6.1510867777922265 L 62.0486663245223 -6.1615464262739135 L 60.34350686311887 -6.185940859037123 L 58.589207829960856 -6.218348295482457 L 56.81512530050749 -6.254633036486936 L 55.02193093685387 -6.299825849892242 L 53.1846856914922 -6.358242055529415 L 51.306148948735476 -6.424454986179056 L 49.412450998266195 -6.494054242793147 L 47.508141890947016 -6.571470925020423 L 45.573350877825476 -6.661077278495696 L 43.61030146304051 -6.757918643777112 L 41.66675436890431 -6.857176835160894 L 39.820790779241065 -6.961829641603968 L 38.107458717445596 -7.075536313705482 L 36.46905882910646 -7.194302516710908 L 34.849048495789525 -7.312637996089771 L 33.23972795149106 -7.429977016200155 L 31.644990725995022 -7.550693775092799 L 30.052142500536235 -7.678426596768204 L 28.447200667052925 -7.810006304968453 L 26.832558046884 -7.940773812453512 L 25.201236297707855 -8.071248644262106 L 23.499034152469125 -8.20857485983599 L 21.668918634948938 -8.358681387495077 L 19.743890200189128 -8.516714220085639 L 17.801778569097426 -8.67633243045482 L 15.892493909699727 -8.839082259645958 L 14.018165919579118 -9.008850551476566 L 12.156414329271104 -9.182895914243705 L 10.312767622118562 -9.35699563283135 L 8.516648777140391 -9.532892537262757 L 6.769602833572932 -9.714638915477178 L 5.043018232364951 -9.900179556038543 L 3.3404802408388385 -10.085079870238632 L 1.696880796639181 -10.270302034266711 L 0.11456507541925914 -10.460180479818069 L -1.4447842323665079 -10.654015618744165 L -3.006574890965994 -10.850964990813825 L -4.608641662986798 -11.06208161477083 L -6.299200169533696 -11.299798127002564 L -8.033882833903206 -11.555381161861913 L -9.702685729757775 -11.815414434594452 L -11.264483920855659 -12.079552879188412 L -12.774188007875765 -12.35442682415008 L -14.30152394717673 -12.658009119627318 L -15.863320621655786 -13.005431430961758 L -17.333637374914556 -13.371583563812969 L -18.55114615639693 -13.71379657479028 L -19.420657991804212 -13.97059146539668 L -19.842264751533246 -13.961723399258378 L -19.824089976226656 -13.238582827939137 L -19.71109235055416 -11.345038434734306 L -19.946805287042583 -8.79816443695475 L -20.313174659098195 -7.006386793115563 L -20.21104503439963 -6.417045294264534 L -19.56529967022571 -6.447314635422987 L -18.57216358765252 -6.615352635353144 L -17.328459932125874 -6.776866456475517 L -15.889160641854296 -6.904774540228926 L -14.329261999423396 -6.990535811416607 L -12.791930619553684 -7.037684292379322 L -11.380414991359771 -7.0535653049450655 L -10.051741157323315 -7.048532691873541 L -8.738061836471072 -7.023599978056832 L -7.393301143605049 -6.971904334800485 L -6.013276895036214 -6.898249780622405 L -4.624979498314822 -6.805180178462816 L -3.222907052541046 -6.686335411476138 L -1.8036948269898825 -6.546185170363842 L -0.3919847779836172 -6.388579649198571 L 1.0144879546928431 -6.207643895401387 L 2.422028273993651 -6.007286433571833 L 3.807830341145246 -5.792516623112439 L 5.17151037335401 -5.558031394334217 L 6.522403390394782 -5.306911646345607 L 7.839296284529629 -5.045281593470138 L 9.123407076080458 -4.7669422734795255 L 10.422041341717641 -4.459751809082065 L 11.80857216354608 -4.092713520327287 L 13.328085075071666 -3.635352622269353 L 14.894960379889422 -3.1130029488979423 L 16.394286032043237 -2.565542853149565 L 17.784510343519823 -2.0113608415711215 L 19.057176158866085 -1.4565460080818187 L 20.2141772676188 -0.9055930177840473 L 21.254552741378028 -0.36300896045641123 L 22.18548996092414 0.170192629663727 L 23.035490226658702 0.724339262421479 L 23.87628471729071 1.3931605077148013 L 24.714097020813547 2.233192475154919 L 25.428158382607158 3.1502527115508787 L 25.937687551717286 4.050307233763039 L 26.257015361759986 4.9289745427065235 L 26.42413367827456 5.814137921476277 L 26.467697576331645 6.722054757881807 L 26.411948625262173 7.652361212148336 L 26.282578808805066 8.5947085998736 L 26.10676291175739 9.536051433184655 L 25.91018425324375 10.465068304853139 L 25.713809109223167 11.373793738056431 L 25.531660560661376 12.257992782116212 L 25.369863143255767 13.117395452960267 L 25.226933624871904 13.956109198739922 L 25.0952234837262 14.782814249811578 L 25.16007702612566 14.673844222761785 L 25.2616949105357 14.597987421319738 L 25.384606735223315 14.566792355861372 L 25.510100289078277 14.58500819231875 L 25.619070316128074 14.649861734718206 L 25.69492711757012 14.751479619128247 L 25.726122183028487 14.874391443815863 L 25.707906346571107 14.999884997670828 L 26.130689444548153 14.28773118057813 L 26.562143591156026 13.569628221123985 L 27.009676126588662 12.836788883186964 L 27.477753793018255 12.076780791899207 L 27.966063528136097 11.274059603678609 L 28.46770958677099 10.410589284772298 L 28.967307878759357 9.466151555008805 L 29.438731069592478 8.418700209057896 L 29.842501516111092 7.245963425699962 L 30.12389629323319 5.929957536375008 L 30.214527642775373 4.464648537081164 L 30.04045897299127 2.8633900526625733 L 29.543250600477 1.1669981553660267 L 28.735834674552876 -0.5273967327661508 L 27.762770889172693 -2.0487987845627815 L 26.79764858411498 -3.2832002357346637 L 25.846856309869004 -4.316160586512877 L 24.823537539469275 -5.280939255754598 L 23.684925816690903 -6.231522018051966 L 22.42113373249935 -7.173814531546981 L 21.034228682574795 -8.104937568729447 L 19.524131066710485 -9.021117267570084 L 17.901997589756217 -9.916505692397232 L 16.213772952687478 -10.772170843390246 L 14.579924984931475 -11.54765000998121 L 13.100468572317729 -12.214454161799999 L 11.728952631113216 -12.804608948972794 L 10.357243195863058 -13.361543714561405 L 8.949372612053377 -13.894832032414019 L 7.515808262128669 -14.406446977220494 L 6.047751027648085 -14.8983570500578 L 4.551362388162367 -15.364074989276235 L 3.041092182449076 -15.80459572250877 L 1.508927438914101 -16.22145394105339 L -0.03538106033139693 -16.607973144172533 L -1.57963451385756 -16.966311472338468 L -3.1320481642986593 -17.29783927906127 L -4.678895012957282 -17.59593358242161 L -6.210629807937392 -17.863724008229863 L -7.737056559550483 -18.102494090070838 L -9.246846339348936 -18.30605157610026 L -10.776807938034217 -18.478457193945673 L -12.448796257010663 -18.619936508617595 L -14.316090676062137 -18.71734635183261 L -16.26954383841259 -18.757240941502523 L -18.17930070778486 -18.728048421208268 L -20.01810642603292 -18.6175918965826 L -21.897345738833597 -18.361116912874504 L -24.08162924340811 -17.70174537087769 L -26.592421068724587 -16.037144905965114 L -28.63722282452159 -12.821670447287307 L -29.10339106127607 -8.681891543597958 L -27.95738675896317 -5.285475593251485 L -26.20401927805183 -3.3333128293430017 L -24.477576216391096 -2.3004968048257903 L -22.75980876923805 -1.6003750200839362 L -20.933356617607387 -1.0039472811147858 L -18.99402416011584 -0.46762880455652606 L -17.065713568985903 -0.0023018095787415427 L -15.263368246827413 0.3809480456608392 L -13.550365605939154 0.7070271839127529 L -11.799224312709454 1.00771960175783 L -9.959169716010106 1.2911762201189982 L -8.086691658805316 1.5549888957114002 L -6.257774547224079 1.7911326019449867 L -4.528948649351118 1.9903502171943501 L -2.885935986167662 2.161246945412462 L -1.2550313494263272 2.3190986881622315 L 0.42888170033266615 2.467735732430995 L 2.1719115125122976 2.603376763724799 L 3.9384188080852036 2.727134939611922 L 5.724300955131641 2.8427937501155127 L 7.556868539745251 2.9487592826796147 L 9.43707004332478 3.040931388413691 L 11.335740840117424 3.1213248598995365 L 13.249381594057523 3.193519129933563 L 15.198373242729854 3.2551373715025718 L 17.18107560326311 3.3021491899624937 L 19.17106417922814 3.3371500420647395 L 21.140883825056555 3.362877342670566 L 23.037190320940645 3.37427055477348 L 24.806482175625664 3.3657743183349718 L 26.47670241738625 3.342349625244002 L 28.112677556060298 3.311639176958887 L 29.753240749874855 3.275258386746797 L 31.407738669784344 3.2289506612889065 L 33.0631092667622 3.1689982659578098 L 34.705737663008065 3.098649787638327 L 36.34405805289729 3.022636787487302 L 38.0165152835331 2.940910692030526 L 39.78892375793407 2.848166646521556 L 41.691025830299516 2.7403602452368676 L 43.669044587259165 2.6212082187067742 L 45.66757699534766 2.4936849398549272 L 47.658700407710924 2.352977976319724 L 49.618060458932426 2.194636513346072 L 51.544539228158804 2.0235348389778083 L 53.45576980376844 1.8436009474851904 L 55.34704082215045 1.6499553251514019 L 57.19256098253801 1.4382645502919056 L 58.99485768954396 1.2139246955077776 L 60.776770394882945 0.9808053339476372 L 62.53180324435493 0.7336604449073051 L 64.2302692572117 0.46843482823027727 L 65.88149534872579 0.19051045796775673 L 67.54400401821096 -0.10048619263500821 L 69.29126515240833 -0.42045042471003036 L 71.1489052499893 -0.7810667343478367 L 73.058809048718 -1.172792243225236 L 74.93678104254268 -1.5882793132721378 L 76.72763910878578 -2.027014663589613 L 78.43773436009157 -2.483990414429109 L 80.07591102789151 -2.959672248509807 L 81.6296075832941 -3.4576038733246404 L 83.15117221917134 -3.9859695871994023 L 84.75612120380394 -4.579524727097078 L 86.49292799202681 -5.267408458351888 L 88.26296225015683 -6.027363777951494 L 89.95026094398762 -6.825576421966377 L 91.52531963330436 -7.644889099255618 L 92.99945816193701 -8.479059381945136 L 94.39551868332876 -9.32294903765664 L 95.7366310238414 -10.172587800737485 Z" fill-rule="nonzero" stroke="none" /></g><g transform="rotate(180)" fill="#d4af37"><path d="M 97.04951080210122 -11.024464627255709 L 96.92773033649868 -10.989109755531706 L 96.80169013320665 -11.003049479743131 L 96.69057867061902 -11.064161603242715 L 96.61131166168684 -11.16314235921042 L 96.57595678996285 -11.284922824812954 L 96.58989651417427 -11.410963028105 L 96.65100863767385 -11.52207449069263 L 96.74998939364156 -11.601341499624796 L 95.30264701317452 -11.03184446116367 L 93.83817279163047 -10.469650696900839 L 92.33711498449588 -9.920984580982667 L 90.78097611347897 -9.39071874490772 L 89.14862847078282 -8.883134418397315 L 87.42798429842388 -8.402531664493234 L 85.64463001724657 -7.963186336390574 L 83.90843956028613 -7.596068171507294 L 82.30642276623554 -7.319997018595695 L 80.787793413202 -7.10493435882352 L 79.25194974893886 -6.919708824577044 L 77.63776625383498 -6.754435596599261 L 75.95059762349388 -6.603512496132898 L 74.19646285607047 -6.468969054929967 L 72.35888665799837 -6.354425773946055 L 70.48351707910997 -6.258553583187006 L 68.6709926346618 -6.190670375970704 L 66.96848958478922 -6.159471377929383 L 65.32824615997451 -6.150970526064815 L 63.699356872432 -6.1510867777922265 L 62.0486663245223 -6.1615464262739135 L 60.34350686311887 -6.185940859037123 L 58.589207829960856 -6.218348295482457 L 56.81512530050749 -6.254633036486936 L 55.02193093685387 -6.299825849892242 L 53.1846856914922 -6.358242055529415 L 51.306148948735476 -6.424454986179056 L 49.412450998266195 -6.494054242793147 L 47.508141890947016 -6.571470925020423 L 45.573350877825476 -6.661077278495696 L 43.61030146304051 -6.757918643777112 L 41.66675436890431 -6.857176835160894 L 39.820790779241065 -6.961829641603968 L 38.107458717445596 -7.075536313705482 L 36.46905882910646 -7.194302516710908 L 34.849048495789525 -7.312637996089771 L 33.23972795149106 -7.429977016200155 L 31.644990725995022 -7.550693775092799 L 30.052142500536235 -7.678426596768204 L 28.447200667052925 -7.810006304968453 L 26.832558046884 -7.940773812453512 L 25.201236297707855 -8.071248644262106 L 23.499034152469125 -8.20857485983599 L 21.668918634948938 -8.358681387495077 L 19.743890200189128 -8.516714220085639 L 17.801778569097426 -8.67633243045482 L 15.892493909699727 -8.839082259645958 L 14.018165919579118 -9.008850551476566 L 12.156414329271104 -9.182895914243705 L 10.312767622118562 -9.35699563283135 L 8.516648777140391 -9.532892537262757 L 6.769602833572932 -9.714638915477178 L 5.043018232364951 -9.900179556038543 L 3.3404802408388385 -10.085079870238632 L 1.696880796639181 -10.270302034266711 L 0.11456507541925914 -10.460180479818069 L -1.4447842323665079 -10.654015618744165 L -3.006574890965994 -10.850964990813825 L -4.608641662986798 -11.06208161477083 L -6.299200169533696 -11.299798127002564 L -8.033882833903206 -11.555381161861913 L -9.702685729757775 -11.815414434594452 L -11.264483920855659 -12.079552879188412 L -12.774188007875765 -12.35442682415008 L -14.30152394717673 -12.658009119627318 L -15.863320621655786 -13.005431430961758 L -17.333637374914556 -13.371583563812969 L -18.55114615639693 -13.71379657479028 L -19.420657991804212 -13.97059146539668 L -19.842264751533246 -13.961723399258378 L -19.824089976226656 -13.238582827939137 L -19.71109235055416 -11.345038434734306 L -19.946805287042583 -8.79816443695475 L -20.313174659098195 -7.006386793115563 L -20.21104503439963 -6.417045294264534 L -19.56529967022571 -6.447314635422987 L -18.57216358765252 -6.615352635353144 L -17.328459932125874 -6.776866456475517 L -15.889160641854296 -6.904774540228926 L -14.329261999423396 -6.990535811416607 L -12.791930619553684 -7.037684292379322 L -11.380414991359771 -7.0535653049450655 L -10.051741157323315 -7.048532691873541 L -8.738061836471072 -7.023599978056832 L -7.393301143605049 -6.971904334800485 L -6.013276895036214 -6.898249780622405 L -4.624979498314822 -6.805180178462816 L -3.222907052541046 -6.686335411476138 L -1.8036948269898825 -6.546185170363842 L -0.3919847779836172 -6.388579649198571 L 1.0144879546928431 -6.207643895401387 L 2.422028273993651 -6.007286433571833 L 3.807830341145246 -5.792516623112439 L 5.17151037335401 -5.558031394334217 L 6.522403390394782 -5.306911646345607 L 7.839296284529629 -5.045281593470138 L 9.123407076080458 -4.7669422734795255 L 10.422041341717641 -4.459751809082065 L 11.80857216354608 -4.092713520327287 L 13.328085075071666 -3.635352622269353 L 14.894960379889422 -3.1130029488979423 L 16.394286032043237 -2.565542853149565 L 17.784510343519823 -2.0113608415711215 L 19.057176158866085 -1.4565460080818187 L 20.2141772676188 -0.9055930177840473 L 21.254552741378028 -0.36300896045641123 L 22.18548996092414 0.170192629663727 L 23.035490226658702 0.724339262421479 L 23.87628471729071 1.3931605077148013 L 24.714097020813547 2.233192475154919 L 25.428158382607158 3.1502527115508787 L 25.937687551717286 4.050307233763039 L 26.257015361759986 4.9289745427065235 L 26.42413367827456 5.814137921476277 L 26.467697576331645 6.722054757881807 L 26.411948625262173 7.652361212148336 L 26.282578808805066 8.5947085998736 L 26.10676291175739 9.536051433184655 L 25.91018425324375 10.465068304853139 L 25.713809109223167 11.373793738056431 L 25.531660560661376 12.257992782116212 L 25.369863143255767 13.117395452960267 L 25.226933624871904 13.956109198739922 L 25.0952234837262 14.782814249811578 L 25.16007702612566 14.673844222761785 L 25.2616949105357 14.597987421319738 L 25.384606735223315 14.566792355861372 L 25.510100289078277 14.58500819231875 L 25.619070316128074 14.649861734718206 L 25.69492711757012 14.751479619128247 L 25.726122183028487 14.874391443815863 L 25.707906346571107 14.999884997670828 L 26.130689444548153 14.28773118057813 L 26.562143591156026 13.569628221123985 L 27.009676126588662 12.836788883186964 L 27.477753793018255 12.076780791899207 L 27.966063528136097 11.274059603678609 L 28.46770958677099 10.410589284772298 L 28.967307878759357 9.466151555008805 L 29.438731069592478 8.418700209057896 L 29.842501516111092 7.245963425699962 L 30.12389629323319 5.929957536375008 L 30.214527642775373 4.464648537081164 L 30.04045897299127 2.8633900526625733 L 29.543250600477 1.1669981553660267 L 28.735834674552876 -0.5273967327661508 L 27.762770889172693 -2.0487987845627815 L 26.79764858411498 -3.2832002357346637 L 25.846856309869004 -4.316160586512877 L 24.823537539469275 -5.280939255754598 L 23.684925816690903 -6.231522018051966 L 22.42113373249935 -7.173814531546981 L 21.034228682574795 -8.104937568729447 L 19.524131066710485 -9.021117267570084 L 17.901997589756217 -9.916505692397232 L 16.213772952687478 -10.772170843390246 L 14.579924984931475 -11.54765000998121 L 13.100468572317729 -12.214454161799999 L 11.728952631113216 -12.804608948972794 L 10.357243195863058 -13.361543714561405 L 8.949372612053377 -13.894832032414019 L 7.515808262128669 -14.406446977220494 L 6.047751027648085 -14.8983570500578 L 4.551362388162367 -15.364074989276235 L 3.041092182449076 -15.80459572250877 L 1.508927438914101 -16.22145394105339 L -0.03538106033139693 -16.607973144172533 L -1.57963451385756 -16.966311472338468 L -3.1320481642986593 -17.29783927906127 L -4.678895012957282 -17.59593358242161 L -6.210629807937392 -17.863724008229863 L -7.737056559550483 -18.102494090070838 L -9.246846339348936 -18.30605157610026 L -10.776807938034217 -18.478457193945673 L -12.448796257010663 -18.619936508617595 L -14.316090676062137 -18.71734635183261 L -16.26954383841259 -18.757240941502523 L -18.17930070778486 -18.728048421208268 L -20.01810642603292 -18.6175918965826 L -21.897345738833597 -18.361116912874504 L -24.08162924340811 -17.70174537087769 L -26.592421068724587 -16.037144905965114 L -28.63722282452159 -12.821670447287307 L -29.10339106127607 -8.681891543597958 L -27.95738675896317 -5.285475593251485 L -26.20401927805183 -3.3333128293430017 L -24.477576216391096 -2.3004968048257903 L -22.75980876923805 -1.6003750200839362 L -20.933356617607387 -1.0039472811147858 L -18.99402416011584 -0.46762880455652606 L -17.065713568985903 -0.0023018095787415427 L -15.263368246827413 0.3809480456608392 L -13.550365605939154 0.7070271839127529 L -11.799224312709454 1.00771960175783 L -9.959169716010106 1.2911762201189982 L -8.086691658805316 1.5549888957114002 L -6.257774547224079 1.7911326019449867 L -4.528948649351118 1.9903502171943501 L -2.885935986167662 2.161246945412462 L -1.2550313494263272 2.3190986881622315 L 0.42888170033266615 2.467735732430995 L 2.1719115125122976 2.603376763724799 L 3.9384188080852036 2.727134939611922 L 5.724300955131641 2.8427937501155127 L 7.556868539745251 2.9487592826796147 L 9.43707004332478 3.040931388413691 L 11.335740840117424 3.1213248598995365 L 13.249381594057523 3.193519129933563 L 15.198373242729854 3.2551373715025718 L 17.18107560326311 3.3021491899624937 L 19.17106417922814 3.3371500420647395 L 21.140883825056555 3.362877342670566 L 23.037190320940645 3.37427055477348 L 24.806482175625664 3.3657743183349718 L 26.47670241738625 3.342349625244002 L 28.112677556060298 3.311639176958887 L 29.753240749874855 3.275258386746797 L 31.407738669784344 3.2289506612889065 L 33.0631092667622 3.1689982659578098 L 34.705737663008065 3.098649787638327 L 36.34405805289729 3.022636787487302 L 38.0165152835331 2.940910692030526 L 39.78892375793407 2.848166646521556 L 41.691025830299516 2.7403602452368676 L 43.669044587259165 2.6212082187067742 L 45.66757699534766 2.4936849398549272 L 47.658700407710924 2.352977976319724 L 49.618060458932426 2.194636513346072 L 51.544539228158804 2.0235348389778083 L 53.45576980376844 1.8436009474851904 L 55.34704082215045 1.6499553251514019 L 57.19256098253801 1.4382645502919056 L 58.99485768954396 1.2139246955077776 L 60.776770394882945 0.9808053339476372 L 62.53180324435493 0.7336604449073051 L 64.2302692572117 0.46843482823027727 L 65.88149534872579 0.19051045796775673 L 67.54400401821096 -0.10048619263500821 L 69.29126515240833 -0.42045042471003036 L 71.1489052499893 -0.7810667343478367 L 73.058809048718 -1.172792243225236 L 74.93678104254268 -1.5882793132721378 L 76.72763910878578 -2.027014663589613 L 78.43773436009157 -2.483990414429109 L 80.07591102789151 -2.959672248509807 L 81.6296075832941 -3.4576038733246404 L 83.15117221917134 -3.9859695871994023 L 84.75612120380394 -4.579524727097078 L 86.49292799202681 -5.267408458351888 L 88.26296225015683 -6.027363777951494 L 89.95026094398762 -6.825576421966377 L 91.52531963330436 -7.644889099255618 L 92.99945816193701 -8.479059381945136 L 94.39551868332876 -9.32294903765664 L 95.7366310238414 -10.172587800737485 Z" fill-rule="nonzero" stroke="none" /></g><g transform="rotate(270)" fill="#d4af37"><path d="M 97.04951080210122 -11.024464627255709 L 96.92773033649868 -10.989109755531706 L 96.80169013320665 -11.003049479743131 L 96.69057867061902 -11.064161603242715 L 96.61131166168684 -11.16314235921042 L 96.57595678996285 -11.284922824812954 L 96.58989651417427 -11.410963028105 L 96.65100863767385 -11.52207449069263 L 96.74998939364156 -11.601341499624796 L 95.30264701317452 -11.03184446116367 L 93.83817279163047 -10.469650696900839 L 92.33711498449588 -9.920984580982667 L 90.78097611347897 -9.39071874490772 L 89.14862847078282 -8.883134418397315 L 87.42798429842388 -8.402531664493234 L 85.64463001724657 -7.963186336390574 L 83.90843956028613 -7.596068171507294 L 82.30642276623554 -7.319997018595695 L 80.787793413202 -7.10493435882352 L 79.25194974893886 -6.919708824577044 L 77.63776625383498 -6.754435596599261 L 75.95059762349388 -6.603512496132898 L 74.19646285607047 -6.468969054929967 L 72.35888665799837 -6.354425773946055 L 70.48351707910997 -6.258553583187006 L 68.6709926346618 -6.190670375970704 L 66.96848958478922 -6.159471377929383 L 65.32824615997451 -6.150970526064815 L 63.699356872432 -6.1510867777922265 L 62.0486663245223 -6.1615464262739135 L 60.34350686311887 -6.185940859037123 L 58.589207829960856 -6.218348295482457 L 56.81512530050749 -6.254633036486936 L 55.02193093685387 -6.299825849892242 L 53.1846856914922 -6.358242055529415 L 51.306148948735476 -6.424454986179056 L 49.412450998266195 -6.494054242793147 L 47.508141890947016 -6.571470925020423 L 45.573350877825476 -6.661077278495696 L 43.61030146304051 -6.757918643777112 L 41.66675436890431 -6.857176835160894 L 39.820790779241065 -6.961829641603968 L 38.107458717445596 -7.075536313705482 L 36.46905882910646 -7.194302516710908 L 34.849048495789525 -7.312637996089771 L 33.23972795149106 -7.429977016200155 L 31.644990725995022 -7.550693775092799 L 30.052142500536235 -7.678426596768204 L 28.447200667052925 -7.810006304968453 L 26.832558046884 -7.940773812453512 L 25.201236297707855 -8.071248644262106 L 23.499034152469125 -8.20857485983599 L 21.668918634948938 -8.358681387495077 L 19.743890200189128 -8.516714220085639 L 17.801778569097426 -8.67633243045482 L 15.892493909699727 -8.839082259645958 L 14.018165919579118 -9.008850551476566 L 12.156414329271104 -9.182895914243705 L 10.312767622118562 -9.35699563283135 L 8.516648777140391 -9.532892537262757 L 6.769602833572932 -9.714638915477178 L 5.043018232364951 -9.900179556038543 L 3.3404802408388385 -10.085079870238632 L 1.696880796639181 -10.270302034266711 L 0.11456507541925914 -10.460180479818069 L -1.4447842323665079 -10.654015618744165 L -3.006574890965994 -10.850964990813825 L -4.608641662986798 -11.06208161477083 L -6.299200169533696 -11.299798127002564 L -8.033882833903206 -11.555381161861913 L -9.702685729757775 -11.815414434594452 L -11.264483920855659 -12.079552879188412 L -12.774188007875765 -12.35442682415008 L -14.30152394717673 -12.658009119627318 L -15.863320621655786 -13.005431430961758 L -17.333637374914556 -13.371583563812969 L -18.55114615639693 -13.71379657479028 L -19.420657991804212 -13.97059146539668 L -19.842264751533246 -13.961723399258378 L -19.824089976226656 -13.238582827939137 L -19.71109235055416 -11.345038434734306 L -19.946805287042583 -8.79816443695475 L -20.313174659098195 -7.006386793115563 L -20.21104503439963 -6.417045294264534 L -19.56529967022571 -6.447314635422987 L -18.57216358765252 -6.615352635353144 L -17.328459932125874 -6.776866456475517 L -15.889160641854296 -6.904774540228926 L -14.329261999423396 -6.990535811416607 L -12.791930619553684 -7.037684292379322 L -11.380414991359771 -7.0535653049450655 L -10.051741157323315 -7.048532691873541 L -8.738061836471072 -7.023599978056832 L -7.393301143605049 -6.971904334800485 L -6.013276895036214 -6.898249780622405 L -4.624979498314822 -6.805180178462816 L -3.222907052541046 -6.686335411476138 L -1.8036948269898825 -6.546185170363842 L -0.3919847779836172 -6.388579649198571 L 1.0144879546928431 -6.207643895401387 L 2.422028273993651 -6.007286433571833 L 3.807830341145246 -5.792516623112439 L 5.17151037335401 -5.558031394334217 L 6.522403390394782 -5.306911646345607 L 7.839296284529629 -5.045281593470138 L 9.123407076080458 -4.7669422734795255 L 10.422041341717641 -4.459751809082065 L 11.80857216354608 -4.092713520327287 L 13.328085075071666 -3.635352622269353 L 14.894960379889422 -3.1130029488979423 L 16.394286032043237 -2.565542853149565 L 17.784510343519823 -2.0113608415711215 L 19.057176158866085 -1.4565460080818187 L 20.2141772676188 -0.9055930177840473 L 21.254552741378028 -0.36300896045641123 L 22.18548996092414 0.170192629663727 L 23.035490226658702 0.724339262421479 L 23.87628471729071 1.3931605077148013 L 24.714097020813547 2.233192475154919 L 25.428158382607158 3.1502527115508787 L 25.937687551717286 4.050307233763039 L 26.257015361759986 4.9289745427065235 L 26.42413367827456 5.814137921476277 L 26.467697576331645 6.722054757881807 L 26.411948625262173 7.652361212148336 L 26.282578808805066 8.5947085998736 L 26.10676291175739 9.536051433184655 L 25.91018425324375 10.465068304853139 L 25.713809109223167 11.373793738056431 L 25.531660560661376 12.257992782116212 L 25.369863143255767 13.117395452960267 L 25.226933624871904 13.956109198739922 L 25.0952234837262 14.782814249811578 L 25.16007702612566 14.673844222761785 L 25.2616949105357 14.597987421319738 L 25.384606735223315 14.566792355861372 L 25.510100289078277 14.58500819231875 L 25.619070316128074 14.649861734718206 L 25.69492711757012 14.751479619128247 L 25.726122183028487 14.874391443815863 L 25.707906346571107 14.999884997670828 L 26.130689444548153 14.28773118057813 L 26.562143591156026 13.569628221123985 L 27.009676126588662 12.836788883186964 L 27.477753793018255 12.076780791899207 L 27.966063528136097 11.274059603678609 L 28.46770958677099 10.410589284772298 L 28.967307878759357 9.466151555008805 L 29.438731069592478 8.418700209057896 L 29.842501516111092 7.245963425699962 L 30.12389629323319 5.929957536375008 L 30.214527642775373 4.464648537081164 L 30.04045897299127 2.8633900526625733 L 29.543250600477 1.1669981553660267 L 28.735834674552876 -0.5273967327661508 L 27.762770889172693 -2.0487987845627815 L 26.79764858411498 -3.2832002357346637 L 25.846856309869004 -4.316160586512877 L 24.823537539469275 -5.280939255754598 L 23.684925816690903 -6.231522018051966 L 22.42113373249935 -7.173814531546981 L 21.034228682574795 -8.104937568729447 L 19.524131066710485 -9.021117267570084 L 17.901997589756217 -9.916505692397232 L 16.213772952687478 -10.772170843390246 L 14.579924984931475 -11.54765000998121 L 13.100468572317729 -12.214454161799999 L 11.728952631113216 -12.804608948972794 L 10.357243195863058 -13.361543714561405 L 8.949372612053377 -13.894832032414019 L 7.515808262128669 -14.406446977220494 L 6.047751027648085 -14.8983570500578 L 4.551362388162367 -15.364074989276235 L 3.041092182449076 -15.80459572250877 L 1.508927438914101 -16.22145394105339 L -0.03538106033139693 -16.607973144172533 L -1.57963451385756 -16.966311472338468 L -3.1320481642986593 -17.29783927906127 L -4.678895012957282 -17.59593358242161 L -6.210629807937392 -17.863724008229863 L -7.737056559550483 -18.102494090070838 L -9.246846339348936 -18.30605157610026 L -10.776807938034217 -18.478457193945673 L -12.448796257010663 -18.619936508617595 L -14.316090676062137 -18.71734635183261 L -16.26954383841259 -18.757240941502523 L -18.17930070778486 -18.728048421208268 L -20.01810642603292 -18.6175918965826 L -21.897345738833597 -18.361116912874504 L -24.08162924340811 -17.70174537087769 L -26.592421068724587 -16.037144905965114 L -28.63722282452159 -12.821670447287307 L -29.10339106127607 -8.681891543597958 L -27.95738675896317 -5.285475593251485 L -26.20401927805183 -3.3333128293430017 L -24.477576216391096 -2.3004968048257903 L -22.75980876923805 -1.6003750200839362 L -20.933356617607387 -1.0039472811147858 L -18.99402416011584 -0.46762880455652606 L -17.065713568985903 -0.0023018095787415427 L -15.263368246827413 0.3809480456608392 L -13.550365605939154 0.7070271839127529 L -11.799224312709454 1.00771960175783 L -9.959169716010106 1.2911762201189982 L -8.086691658805316 1.5549888957114002 L -6.257774547224079 1.7911326019449867 L -4.528948649351118 1.9903502171943501 L -2.885935986167662 2.161246945412462 L -1.2550313494263272 2.3190986881622315 L 0.42888170033266615 2.467735732430995 L 2.1719115125122976 2.603376763724799 L 3.9384188080852036 2.727134939611922 L 5.724300955131641 2.8427937501155127 L 7.556868539745251 2.9487592826796147 L 9.43707004332478 3.040931388413691 L 11.335740840117424 3.1213248598995365 L 13.249381594057523 3.193519129933563 L 15.198373242729854 3.2551373715025718 L 17.18107560326311 3.3021491899624937 L 19.17106417922814 3.3371500420647395 L 21.140883825056555 3.362877342670566 L 23.037190320940645 3.37427055477348 L 24.806482175625664 3.3657743183349718 L 26.47670241738625 3.342349625244002 L 28.112677556060298 3.311639176958887 L 29.753240749874855 3.275258386746797 L 31.407738669784344 3.2289506612889065 L 33.0631092667622 3.1689982659578098 L 34.705737663008065 3.098649787638327 L 36.34405805289729 3.022636787487302 L 38.0165152835331 2.940910692030526 L 39.78892375793407 2.848166646521556 L 41.691025830299516 2.7403602452368676 L 43.669044587259165 2.6212082187067742 L 45.66757699534766 2.4936849398549272 L 47.658700407710924 2.352977976319724 L 49.618060458932426 2.194636513346072 L 51.544539228158804 2.0235348389778083 L 53.45576980376844 1.8436009474851904 L 55.34704082215045 1.6499553251514019 L 57.19256098253801 1.4382645502919056 L 58.99485768954396 1.2139246955077776 L 60.776770394882945 0.9808053339476372 L 62.53180324435493 0.7336604449073051 L 64.2302692572117 0.46843482823027727 L 65.88149534872579 0.19051045796775673 L 67.54400401821096 -0.10048619263500821 L 69.29126515240833 -0.42045042471003036 L 71.1489052499893 -0.7810667343478367 L 73.058809048718 -1.172792243225236 L 74.93678104254268 -1.5882793132721378 L 76.72763910878578 -2.027014663589613 L 78.43773436009157 -2.483990414429109 L 80.07591102789151 -2.959672248509807 L 81.6296075832941 -3.4576038733246404 L 83.15117221917134 -3.9859695871994023 L 84.75612120380394 -4.579524727097078 L 86.49292799202681 -5.267408458351888 L 88.26296225015683 -6.027363777951494 L 89.95026094398762 -6.825576421966377 L 91.52531963330436 -7.644889099255618 L 92.99945816193701 -8.479059381945136 L 94.39551868332876 -9.32294903765664 L 95.7366310238414 -10.172587800737485 Z" fill-rule="nonzero" stroke="none" /></g></g></svg>